# xmcd CD database file
#
# Track frame offsets:
#	150
#	28416
#	165608
#
# Disc length: 3815 seconds
#
# Revision: 0
# Processed by: cddbd v1.5.2PL0 Copyright (c) Steve Scherf et al.
# Submitted via: CDex 1.70beta2
#
DISCID=200ee503
DTITLE=Don Cherry - Blue Lake
DYEAR=1971
DGENRE=Jazz
TTITLE0=Blue Lake
TTITLE1=Dollar and Okay's Tune
TTITLE2=East
EXTD=YEAR: 1971
EXTT0=
EXTT1=
EXTT2=
PLAYORDER=
